<?xml version="1.0" standalone="no"?>
<!DOCTYPE svg PUBLIC "-//W3C//DTD SVG 20010904//EN"
 "http://www.w3.org/TR/2001/REC-SVG-20010904/DTD/svg10.dtd">
<svg version="1.0" xmlns="http://www.w3.org/2000/svg"
 width="194.000000pt" height="46.000000pt" viewBox="0 0 287.000000 92.000000"
 preserveAspectRatio="xMidYMid meet">

<g transform="translate(0.000000,98.000000) scale(0.100000,-0.100000)"
stroke="none">

  <!-- Logo kiri biru -->
  <path d="M437 790 c-140 -35 -268 -165 -284 -290 -3 -22 -9 -37 -14 -34 -5 3
-9 -18 -9 -46 0 -32 4 -49 10 -45 6 4 10 -6 10 -22 1 -66 71 -172 154 -231
l46 -33 0 180 c0 100 3 181 8 181 4 0 21 -23 38 -51 l31 -52 52 84 c29 46 59
94 68 107 15 21 14 22 -10 22 -20 0 -36 -13 -68 -55 -23 -30 -44 -55 -48 -55
-3 1 -22 24 -41 53 -22 32 -44 53 -58 55 l-22 3 0 -185 c0 -102 -4 -186 -8
-186 -17 0 -82 125 -93 178 -27 132 55 289 180 345 62 27 166 34 225 14 l46
-16 0 30 c0 22 -6 32 -25 39 -38 15 -146 20 -188 10z" fill="#2196b5"/>

  <!-- Logo kanan hijau -->
  <path d="M690 607 l0 -153 -65 0 -65 0 0 35 0 36 -19 -31 c-13 -22 -20 -55
-22 -112 -4 -80 -3 -82 18 -82 21 0 23 5 23 51 0 28 -5 59 -11 71 -6 11 -8 23
-4 26 3 3 8 -3 11 -15 7 -24 51 -36 101 -27 l33 6 0 -56 c0 -53 1 -56 25 -56
l25 0 0 173 c0 96 -3 177 -7 181 -13 13 -14 48 -1 44 7 -3 13 -9 13 -14 0 -5
12 -25 27 -45 103 -134 96 -303 -18 -428 -77 -86 -208 -122 -317 -88 l-48 15
3 -26 c3 -23 10 -29 53 -40 159 -41 331 42 408 197 30 61 32 73 32 166 0 131
-22 182 -113 265 -36 33 -69 60 -73 60 -5 0 -9 -69 -9 -153z" fill="#97e6a2"/>

  <!-- Money (biru) -->
  <path d="M987 536 c-8 -8 -17 -41 -21 -72 -4 -32 -9 -68 -12 -81 -5 -19 -2
-23 19 -23 27 0 37 20 37 80 0 44 16 72 29 51 5 -8 12 -32 15 -54 9 -53 21
-67 61 -67 40 0 49 11 65 78 15 63 34 64 38 1 4 -75 10 -89 37 -89 14 0 25 2
25 4 0 33 -24 164 -32 174 -14 16 -59 16 -82 -1 -9 -7 -23 -37 -29 -66 -16
-73 -33 -76 -42 -6 -3 30 -13 62 -21 70 -19 19 -68 19 -87 1z" fill="#2196b5"/>
  <path d="M1365 503 c-36 -9 -55 -34 -55 -74 0 -54 20 -69 89 -69 65 0 79 10
87 62 10 58 -52 99 -121 81z m73 -66 c3 -21 -2 -29 -19 -36 -47 -17 -79 11
-58 50 8 15 19 19 42 17 27 -2 33 -8 35 -31z" fill="#2196b5"/>
  <path d="M1525 430 c0 -70 0 -70 28 -70 26 0 27 2 27 56 l0 55 33 -3 c31 -3
32 -4 35 -55 3 -49 5 -53 28 -53 24 0 25 1 22 68 l-3 67 -85 3 -85 3 0 -71z" fill="#2196b5"/>
  <path d="M1756 484 c-9 -9 -16 -32 -16 -54 0 -55 20 -70 89 -70 53 0 81 11 81
32 0 5 -16 6 -35 2 -39 -7 -85 1 -85 16 0 6 27 10 60 10 59 0 60 0 60 28 0 15
-5 33 -12 40 -18 18 -123 15 -142 -4z m104 -24 c0 -5 -16 -10 -35 -10 -19 0
-35 5 -35 10 0 6 16 10 35 10 19 0 35 -4 35 -10z" fill="#2196b5"/>
  <path d="M1931 493 c0 -4 10 -35 22 -68 20 -55 25 -60 55 -63 27 -3 32 -7 27
-20 -16 -38 -17 -52 -4 -52 27 0 38 16 68 95 16 44 32 88 36 98 7 16 3 18 -21
15 -24 -2 -31 -11 -45 -48 -11 -30 -23 -45 -34 -45 -11 0 -23 15 -34 45 -13
37 -22 46 -44 48 -15 2 -27 0 -26 -5z" fill="#2196b5"/>

  <!-- Hub (hijau) -->
  <path d="M2170 456 c0 -95 0 -96 24 -96 21 0 25 5 28 37 3 36 3 36 48 36 45 0
45 0 48 -36 3 -34 6 -37 33 -37 l29 0 0 96 0 95 -27 -3 c-24 -3 -28 -8 -31
-40 l-3 -38 -49 0 -49 0 -3 38 c-2 30 -7 38 -25 40 -22 3 -23 1 -23 -92z" fill="#97e6a2"/>
  <path d="M2420 442 c0 -32 5 -63 12 -70 7 -7 43 -12 90 -12 l78 0 0 70 0 70
-31 0 -32 0 5 -51 5 -50 -36 3 c-35 3 -36 4 -39 51 -3 42 -5 47 -28 47 -23 0
-24 -3 -24 -58z" fill="#97e6a2"/>
  <path d="M2663 562 c-22 -3 -23 -7 -23 -103 l0 -99 74 0 c66 0 77 3 90 22 19
27 21 89 4 106 -7 7 -36 12 -64 12 -52 0 -53 0 -56 33 -3 27 -7 31 -25 29z
m105 -124 c3 -22 -2 -30 -22 -38 -39 -14 -56 -3 -56 37 0 33 1 34 38 31 32 -3
37 -7 40 -30z" fill="#97e6a2"/>

</g>
</svg>
